HIERARCHY
ROOT Hips
{
  OFFSET 179.979 97.3047 303.174
  CHANNELS 6 Xposition Yposition Zposition Zrotation Xrotation Yrotation
  JOINT Spine
  {
    OFFSET 0.000859786 9.92346 -1.22733
    CHANNELS 3 Zrotation Xrotation Yrotation
    JOINT Spine1
    {
      OFFSET 0 11.732 0
      CHANNELS 3 Zrotation Xrotation Yrotation
      JOINT Spine2
      {
        OFFSET 0 13.4588 0
        CHANNELS 3 Zrotation Xrotation Yrotation
        JOINT Neck
        {
          OFFSET 2.54812e-05 15.0278 0.877907
          CHANNELS 3 Zrotation Xrotation Yrotation
          JOINT Head
          {
            OFFSET 0 10.3218 3.14243
            CHANNELS 3 Zrotation Xrotation Yrotation
            End Site
            {
              OFFSET 0 0 0
            }
          }
        }
        JOINT LeftShoulder
        {
          OFFSET 6.10582 9.10629 0.757062
          CHANNELS 3 Zrotation Xrotation Yrotation
          JOINT LeftArm
          {
            OFFSET 0 12.9223 0
            CHANNELS 3 Zrotation Xrotation Yrotation
            JOINT LeftForeArm
            {
              OFFSET 0 27.4047 0
              CHANNELS 3 Zrotation Xrotation Yrotation
              JOINT LeftHand
              {
                OFFSET -1.28204e-05 27.6145 0
                CHANNELS 3 Zrotation Xrotation Yrotation
                End Site
                {
                  OFFSET 0 0 0
                }
              }
            }
          }
        }
        JOINT RightShoulder
        {
          OFFSET -6.1057 9.10638 0.757076
          CHANNELS 3 Zrotation Xrotation Yrotation
          JOINT RightArm
          {
            OFFSET 0 12.9223 0
            CHANNELS 3 Zrotation Xrotation Yrotation
            JOINT RightForeArm
            {
              OFFSET 0 27.4047 0
              CHANNELS 3 Zrotation Xrotation Yrotation
              JOINT RightHand
              {
                OFFSET 1.28428e-05 27.6145 1.44975e-05
                CHANNELS 3 Zrotation Xrotation Yrotation
                End Site
                {
                  OFFSET 0 0 0
                }
              }
            }
          }
        }
      }
    }
  }
  JOINT LeftUpLeg
  {
    OFFSET 9.12387 -6.65719 -0.0554031
    CHANNELS 3 Zrotation Xrotation Yrotation
    JOINT LeftLeg
    {
      OFFSET 0 40.5994 0
      CHANNELS 3 Zrotation Xrotation Yrotation
      JOINT LeftFoot
      {
        OFFSET 0 42.099 0
        CHANNELS 3 Zrotation Xrotation Yrotation
        JOINT LeftToeBase
        {
          OFFSET 0 15.7216 0
          CHANNELS 3 Zrotation Xrotation Yrotation
          End Site
          {
            OFFSET 0 0 0
          }
        }
      }
    }
  }
  JOINT RightUpLeg
  {
    OFFSET -9.12503 -6.6556 -0.0553527
    CHANNELS 3 Zrotation Xrotation Yrotation
    JOINT RightLeg
    {
      OFFSET 0 40.5994 0
      CHANNELS 3 Zrotation Xrotation Yrotation
      JOINT RightFoot
      {
        OFFSET 0 42.099 0
        CHANNELS 3 Zrotation Xrotation Yrotation
        JOINT RightToeBase
        {
          OFFSET 0 15.7216 0
          CHANNELS 3 Zrotation Xrotation Yrotation
          End Site
          {
            OFFSET 0 0 0
          }
        }
      }
    }
  }
}
MOTION
Frames:	20
Frame Time:	0.0333333
39.9316 95.7401 426.687 -3.15627 -3.0694 75.1229 0.760919 -5.42381 -1.92976 1.5694 3.07272 -4.06639 2.04564 9.65035 -4.11816 -2.4661 -1.45112 -13.3157 -7.17352 -17.4483 -13.6216 -94.7432 -8.57765 91.1203 42.2344 62.9022 21.9734 27.0988 -18.1321 -0.857735 -14.9531 -8.45708 -7.01736 104.354 -13.4115 -90.6226 -24.0981 52.9374 5.19708 -44.4573 -9.9825 0.772461 12.4464 6.78067 7.67104 -170.199 14.0827 -4.52561 6.00024 -64.136 11.8445 -10.8434 58.6597 7.87211 -0.965277 26.367 -3.60229 178.933 22.7304 3.53226 -1.34614 -32.3744 -1.17353 3.73504 79.0646 -0.543851 0.963535 26.3682 3.55537 
42.3049 96.1049 428.219 -2.78502 -3.75295 77.7589 0.76697 -5.38503 -1.80959 1.57965 3.15174 -3.82814 2.02822 9.73127 -3.87749 -1.85582 0.0860767 -13.9512 -7.74024 -17.7037 -14.1667 -95.1387 -8.42359 91.1646 40.6128 62.215 25.76 22.5744 -14.1336 -0.685815 -15.7612 -2.76848 0.525154 104.14 -14.339 -90.4113 -25.1052 50.7485 7.35405 -49.144 -9.39164 0.765747 12.8637 8.06864 13.5384 -169.958 20.0503 -2.65558 8.29523 -72.1317 10.8505 -7.67222 60.6135 3.52903 -0.965277 26.367 -3.60229 179.665 19.3795 4.53668 -1.12631 -31.3154 -0.122517 0.0580878 80.6873 3.18417 0.963535 26.3682 3.55537 
44.7823 96.6287 429.622 -2.34572 -3.46619 79.3028 0.569216 -5.37251 -1.47651 1.17599 3.18775 -3.10888 1.54068 9.7724 -3.1492 -1.40166 1.75913 -14.2624 -7.93745 -18.8829 -14.5386 -95.8027 -8.89463 91.1359 36.7508 61.4546 31.3482 20.2064 -11.8145 -0.587678 -15.5509 1.94714 8.90981 103.833 -14.6742 -90.3351 -25.854 49.2745 10.8369 -52.3471 -8.71102 0.748095 13.5549 7.94013 18.0862 -171.185 25.3074 -3.07226 13.4442 -76.8353 12.5657 -2.39258 62.3054 -1.24493 -0.965277 26.367 -3.60229 179.622 15.6862 5.79527 -1.13673 -29.2314 0.0881639 -1.35831 81.7379 4.50953 0.963535 26.3682 3.55537 
47.3573 97.1792 430.876 -2.14226 -2.73598 79.7649 0.302452 -5.42084 -0.976679 0.628311 3.10197 -2.0358 0.86765 9.69222 -2.06187 -1.4057 3.28033 -14.1006 -7.60979 -20.143 -14.5852 -96.2571 -9.92656 91.0067 30.9145 60.9232 38.9447 19.6366 -11.1066 -0.558401 -15.3253 4.54482 12.8172 103.103 -14.276 -90.4192 -26.6224 48.8156 15.1889 -53.4984 -8.42951 0.73929 14.0899 7.60091 20.27 -172.523 29.5893 -5.42175 17.4712 -78.1529 13.9503 3.63956 62.9985 -5.10501 -0.965277 26.367 -3.60229 179.495 12.5721 6.38673 -1.40293 -26.9436 0.0428447 -1.82663 82.2991 4.90649 0.963535 26.3682 3.55537 
50.0241 97.4756 431.957 -2.30198 -2.40437 79.7248 0.160565 -5.5218 -0.422769 0.3289 2.90447 -0.888769 0.434159 9.49815 -0.899679 -1.72333 4.43136 -13.4003 -7.08561 -21.2152 -14.1394 -96.4276 -11.191 90.8251 23.217 60.3306 47.5764 20.6188 -11.5334 -0.577265 -15.1262 5.12793 12.0017 102.05 -13.4481 -90.5824 -27.4339 48.8074 18.952 -52.8903 -8.93105 0.756014 14.2115 7.74637 21.4399 -173.062 33.1464 -8.36924 15.9691 -76.7239 11.3466 6.53623 62.8905 -6.61798 -0.965277 26.367 -3.60229 179.867 9.69924 6.55514 -1.69456 -24.5439 0.00435716 -1.99277 82.8451 5.14554 0.963535 26.3682 3.55537 
52.8175 97.4453 432.911 -2.73644 -2.50112 79.6628 0.144373 -5.64829 0.106009 0.282936 2.653 0.173991 0.264042 9.24746 0.176422 -2.16959 5.01681 -12.1938 -6.59817 -22.1392 -13.1608 -96.5239 -12.4237 90.6402 14.4534 59.1303 55.6942 22.5933 -12.5556 -0.620437 -14.4834 4.30826 8.87762 101.024 -12.5653 -90.7402 -28.0068 48.765 21.4408 -51.3853 -9.88027 0.787293 14.2545 8.03743 22.5556 -173.082 35.9594 -10.8468 10.646 -73.4895 6.3707 7.59118 64.5495 -6.62271 -0.965277 26.367 -3.60229 -179.502 6.91209 7.08903 -1.88749 -22.3211 -0.222386 -0.662255 83.7436 4.03391 0.963535 26.3682 3.55537 
55.734 97.0519 433.755 -3.37327 -2.8561 79.6838 0.205416 -5.77632 0.595075 0.394201 2.39861 1.13661 0.263025 8.99177 1.15011 -2.82057 4.86965 -10.6163 -6.04205 -22.8953 -11.8062 -96.7102 -13.5895 90.4641 6.09329 57.1481 62.0181 24.8671 -13.67 -0.665605 -13.3477 2.83742 5.24796 100.228 -11.8448 -90.8573 -28.0668 48.6267 22.8036 -49.7735 -10.6784 0.812777 14.5991 8.12913 23.2972 -172.895 38.0311 -12.3797 4.53377 -68.0994 1.7169 6.13496 65.187 -4.76032 -0.965277 26.367 -3.60229 -178.788 5.02269 7.7416 -2.00614 -21.4894 -0.502394 1.06873 85.2047 2.46882 0.963535 26.3682 3.55537 
58.7277 96.4824 434.526 -4.19388 -3.16253 79.6458 0.278091 -5.89725 1.05472 0.531143 2.15943 2.03757 0.295048 8.7497 2.06053 -3.70522 3.98919 -8.90237 -5.32342 -23.5736 -10.3319 -97.013 -14.7606 90.2832 -0.913356 54.8556 66.2174 26.8299 -14.6858 -0.704967 -12.2777 1.25706 1.61989 99.6717 -11.3511 -90.9308 -27.5677 48.4201 22.737 -48.2437 -11.2159 0.828506 15.1265 8.48555 23.8293 -173.003 39.1187 -13.2877 0.0946382 -60.2381 -0.679813 4.38642 67.136 -2.46667 -0.965277 26.367 -3.60229 -178.072 3.47201 7.71579 -2.06887 -21.169 -0.37199 -0.405816 86.9766 4.26832 0.963535 26.3682 3.55537 
61.723 95.9257 435.254 -5.21503 -3.22419 79.5838 0.318396 -6.0192 1.45045 0.606546 1.91818 2.81917 0.279608 8.50462 2.84942 -4.56997 2.66539 -7.33254 -4.66643 -24.4834 -8.97058 -97.3872 -15.9174 90.0954 -6.74759 52.9498 68.6363 28.1114 -15.672 -0.743939 -11.8453 -0.263236 -1.29794 99.2941 -11.025 -90.9762 -26.5818 48.0914 20.6018 -46.4541 -11.6213 0.837846 15.439 9.70048 24.799 -173.791 39.179 -14.1706 -1.7032 -49.5358 -0.759727 3.29245 67.7129 -0.374691 -0.965277 26.367 -3.60229 -177.494 2.09607 7.19219 -2.14094 -20.6547 0.0858933 -12.8309 88.5555 17.1667 0.963535 26.3682 3.55537 
64.7635 95.4524 435.921 -6.33498 -3.47955 79.7649 0.407869 -6.12862 1.72606 0.782905 1.70315 3.34801 0.394662 8.28626 3.3824 -5.12508 1.32389 -6.1038 -4.38428 -25.8141 -7.869 -97.6912 -16.9152 89.926 -12.1271 51.9706 69.7884 28.6961 -16.682 -0.786514 -12.1342 -1.7914 -2.32019 98.9475 -10.786 -91.0053 -25.2008 47.7698 16.5166 -44.1232 -11.7464 0.834449 15.4083 11.4678 25.7174 -175.355 37.7884 -15.4331 -0.858869 -36.3865 0.797052 1.08267 68.2596 1.12136 -0.965277 26.367 -3.60229 -176.832 0.828574 7.106 -2.20808 -20.1083 0.346591 -31.6946 89.197 36.5705 0.963535 26.3682 3.55537 
67.8805 95.0321 436.502 -7.20353 -3.76717 80.3619 0.499355 -6.18124 1.85086 0.964515 1.60138 3.57451 0.550035 8.1829 3.61053 -5.3298 0.266101 -5.23698 -4.46117 -27.3983 -7.06279 -97.8325 -17.7199 89.7884 -17.3854 52.0129 70.3092 28.7474 -17.6535 -0.830262 -12.8769 -3.37753 -1.04556 98.6283 -10.5296 -91.037 -23.4053 47.6152 11.0238 -41.3394 -11.4168 0.8102 15.2862 12.911 25.6548 -177.682 36.3803 -16.8569 1.09675 -24.9166 2.70245 -0.771563 67.2355 3.01875 -0.965277 26.367 -3.60229 -176.375 -0.686964 7.88014 -2.35996 -19.5432 0.0945975 -9.38193 89.4285 15.0586 0.963535 26.3682 3.55537 
70.9884 94.8061 436.939 -7.49412 -3.28437 81.4359 0.396059 -6.1001 1.81996 0.757102 1.76049 3.53872 0.346619 8.34228 3.57551 -5.39992 -0.748046 -4.69497 -4.50727 -28.8017 -6.54389 -97.9856 -18.5061 89.6512 -21.407 52.9172 70.3716 28.0136 -18.2527 -0.860484 -13.7975 -4.96801 0.951523 98.7608 -10.2174 -91.096 -21.3306 47.6453 4.79001 -38.2876 -10.8055 0.772319 15.4091 13.3573 25.0016 178.202 35.3251 -15.4906 2.92357 -20.0087 1.67405 9.95623 62.2402 1.33927 -0.965277 26.367 -3.60229 -177.147 -2.22562 9.45725 -2.44747 -19.7804 -0.692367 40.1386 88.989 -33.5576 0.963535 26.3682 3.55537 
74.2953 94.7107 437.181 -7.23796 -2.72631 82.7158 0.230998 -5.85939 1.73456 0.422976 2.23669 3.40988 0.027006 8.81939 3.44849 -5.61724 -1.99181 -4.54489 -4.24312 -29.8855 -6.42244 -98.3379 -19.1617 89.5248 -22.6618 54.6004 69.6156 25.8226 -17.9404 -0.851783 -14.7898 -6.11724 1.38331 99.6702 -9.86167 -91.1994 -19.0789 48.1699 -0.864519 -34.7044 -10.2166 0.728764 16.0996 12.3408 24.5251 175.497 35.0642 -10.7349 3.59436 -23.3749 -0.38154 16.2344 62.855 -2.2656 -0.965277 26.367 -3.60229 -178.784 -1.73264 11.9752 -2.7679 -24.7925 -2.25747 34.043 86.8124 -26.9463 0.963535 26.3682 3.55537 
77.6283 94.4565 437.374 -6.75653 -2.13103 84.1728 0.0593311 -5.56995 1.64734 0.0744728 2.8105 3.28052 -0.307051 9.39404 3.32146 -5.95946 -2.92435 -4.84124 -3.96984 -30.7633 -6.79324 -98.5852 -19.1137 89.5227 -21.5378 56.9317 68.0606 22.4668 -16.4944 -0.788427 -15.5992 -5.87917 0.0346578 100.815 -9.48374 -91.3247 -16.5947 50.0018 -4.30147 -29.8541 -9.68615 0.673986 17.4319 9.62456 23.4079 173.839 35.3201 -4.88145 2.11602 -29.1853 -3.167 21.7999 66.3278 -8.14157 -0.965277 26.367 -3.60229 178.888 1.04387 14.6724 -3.90143 -33.8572 -4.90569 25.4884 82.2565 -18.3133 0.963535 26.3682 3.55537 
80.9837 94.2499 437.601 -6.38569 -2.03587 85.9048 0.0368706 -5.39354 1.49471 0.0289335 3.16259 2.98147 -0.318073 9.74804 3.02088 -6.03975 -2.71058 -5.39677 -4.06669 -31.1307 -7.42809 -98.2436 -18.2377 89.6889 -19.9902 59.6442 66.7726 19.6873 -14.6505 -0.703952 -15.6997 -3.43059 -1.10815 101.272 -9.1377 -91.4148 -13.9234 53.6288 -5.22367 -23.6479 -9.08624 0.596614 18.6849 5.87461 19.8701 173.909 34.9058 -3.18517 0.19268 -33.7678 -4.08447 23.7669 70.2151 -11.5 -0.965277 26.367 -3.60229 176.298 5.4253 16.0336 -5.27606 -44.4336 -7.50844 21.2122 72.6062 -10.3057 0.963535 26.3682 3.55537 
84.3147 94.2116 437.842 -6.07277 -1.96556 87.8548 0.0411176 -5.35151 1.17187 0.0456687 3.24682 2.33393 -0.22578 9.83575 2.36525 -5.6823 -1.49917 -6.03928 -4.21666 -30.4065 -8.0437 -97.4653 -17.2788 89.8712 -18.7385 61.9894 67.0416 18.9597 -13.4775 -0.652594 -14.8842 0.714306 -0.95709 100.956 -8.94589 -91.4345 -10.9528 57.8582 -5.78359 -17.449 -8.28808 0.502771 18.9692 2.75163 13.8111 174.229 33.411 -6.39747 0.661797 -36.2135 -1.46632 22.9008 73.9021 -10.1286 -0.965277 26.367 -3.60229 174.472 10.8712 15.6279 -7.07009 -55.2536 -9.40286 15.2855 63.119 -4.83259 0.963535 26.3682 3.55537 
87.5848 94.2103 438.051 -5.56143 -1.43067 90.0738 -0.0837657 -5.318 0.65414 -0.189119 3.31227 1.33204 -0.343452 9.90496 1.35006 -5.27098 -0.182072 -6.94717 -3.76874 -28.6896 -8.83535 -96.8445 -16.7842 89.9628 -16.1543 63.4345 68.0311 20.1377 -13.3216 -0.648942 -13.2726 4.17897 -0.311319 100.582 -9.05482 -91.3934 -6.68385 60.9201 -9.77152 -13.328 -7.07738 0.412399 18.4674 1.50391 8.1249 173.622 31.1906 -9.69032 2.59378 -37.5655 2.40152 19.3541 76.9743 -6.11288 -0.965277 26.367 -3.60229 172.653 16.4875 14.1632 -8.69675 -65.3979 -10.4781 11.1005 56.5396 -1.98318 0.963535 26.3682 3.55537 
90.8652 94.3117 438.287 -4.85097 -0.590755 92.5127 -0.298191 -5.22417 0.0685686 -0.600332 3.50033 0.218793 -0.624452 10.0947 0.221795 -5.0105 0.959872 -8.37984 -2.78471 -26.8803 -10.1952 -96.5481 -16.3395 90.0376 -11.4608 64.2559 67.7927 22.0552 -13.9743 -0.678848 -11.453 4.53082 -0.0262115 100.635 -9.55187 -91.3028 0.0433845 62.2149 -19.1966 -12.513 -5.77476 0.358889 17.7786 1.63574 6.24273 172.258 28.1801 -9.03393 2.93383 -37.939 3.57353 18.6096 79.1012 -5.38197 -0.965277 26.367 -3.60229 170.885 20.9064 12.672 -10.3066 -73.1053 -9.9592 10.3499 57.7766 1.23423 0.963535 26.3682 3.55537 
94.297 94.7568 438.538 -4.095 -0.527658 94.9468 -0.33017 -5.13653 -0.465646 -0.647064 3.67846 -0.841149 -0.547074 10.2722 -0.853179 -4.58198 2.1756 -10.2039 -1.84205 -25.3785 -11.9538 -96.25 -15.4326 90.1796 -6.15488 65.1452 65.7442 23.9828 -15.2134 -0.731867 -10.5148 1.83037 0.242697 100.925 -10.3241 -91.1694 8.77263 62.3888 -31.1551 -14.1386 -5.347 0.365091 16.9483 1.80572 7.95529 171.907 24.4005 -6.15169 1.67452 -37.1707 2.69015 20.6019 80.4941 -7.6822 -0.965277 26.367 -3.60229 170.546 25.1558 11.928 -12.3473 -77.689 -9.54762 5.05674 58.6498 4.34171 0.963535 26.3682 3.55537 
97.7699 95.2778 438.84 -3.55337 -0.671134 96.8037 -0.289155 -5.13858 -0.919226 -0.550248 3.67626 -1.7604 -0.342646 10.2676 -1.78541 -3.80211 3.40711 -11.8822 -1.03886 -23.6717 -13.4639 -95.7946 -14.3921 90.3357 -1.74145 66.1259 62.8477 26.093 -16.9912 -0.807845 -10.6679 -1.91354 1.25654 101.006 -11.0443 -91.0342 17.7961 62.278 -40.3152 -16.0606 -5.69486 0.399655 15.8509 1.63956 9.28261 172.296 20.5152 -4.23988 0.694858 -35.5955 2.19469 21.4585 81.6077 -8.94868 -0.965277 26.367 -3.60229 170.835 28.9725 11.0957 -13.639 -78.6433 -8.63207 0.939423 58.7856 7.13706 0.963535 26.3682 3.55537 
